<svg xmlns="http://www.w3.org/2000/svg" width="279" height="187" fill="none" xmlns:v="https://vecta.io/nano"><path d="M129.11 160.775l-1.353-3.174h-6.615l-1.354 3.174h-3.909l6.967-15.309h3.107l7.016 15.309h-3.859zm-6.715-6.144h4.109l-2.055-4.915-2.054 4.915zm13.281 6.144v-15.309h3.909v12.083h6.365v3.226h-10.274zm13.982 0v-15.309h10.424v3.123h-6.565v2.816h6.164v3.123h-6.164v6.247h-3.859zm24.357 0l-1.353-3.175h-6.615l-1.353 3.175h-3.909l7.016-15.309h3.107l7.016 15.309h-3.909zm-6.715-6.144h4.109l-2.054-4.916-2.055 4.916zm25.358-.41c.451.666.701 1.434.701 2.355 0 .819-.2 1.587-.651 2.202a4.57 4.57 0 0 1-1.855 1.485c-.801.358-1.754.512-2.806.512h-7.467v-15.309h7.266c1.554 0 2.807.358 3.759 1.075s1.403 1.689 1.403 2.918c0 .768-.2 1.485-.601 2.048-.401.615-1.002 1.024-1.704 1.332.802.256 1.504.716 1.955 1.382zm-8.27-2.714h2.807c.752 0 1.253-.102 1.604-.358s.501-.615.501-1.127-.151-.921-.501-1.177-.902-.359-1.604-.359h-2.807v3.021zm4.812 5.888c.35-.256.501-.665.501-1.228s-.151-.973-.501-1.229-.903-.359-1.654-.359h-3.158v3.277h3.158c.802-.102 1.353-.205 1.654-.461zm7.968 3.38v-15.309h10.625v3.072h-6.866v2.918h6.465v3.072h-6.415v3.175h6.866v3.072h-10.675zm18.192 0v-12.084h-4.46v-3.225h12.93v3.225h-4.46v12.084h-4.01zm14.184-.768c-1.103-.666-2.005-1.537-2.606-2.714s-.902-2.56-.902-4.147.3-2.97.902-4.148 1.453-2.099 2.606-2.713c1.102-.615 2.455-.973 4.009-.973s2.857.307 3.959.973c1.103.614 2.005 1.536 2.606 2.713s.902 2.56.902 4.148-.3 2.969-.902 4.147-1.453 2.099-2.606 2.714c-1.102.665-2.455.972-3.959.972-1.554 0-2.907-.307-4.009-.972zm6.615-3.329c.652-.819.952-1.996.952-3.584s-.3-2.765-.952-3.584-1.503-1.229-2.656-1.229-2.005.41-2.656 1.229-.952 1.997-.952 3.584.3 2.765.952 3.584 1.503 1.229 2.656 1.229 2.055-.409 2.656-1.229zm-107.5 14.849h3.96l-6.816 15.31h-3.107l-6.866-15.31h4.059l4.36 10.343 4.41-10.343zm6.616 15.31v-15.31h3.909v15.31h-3.909zm10.574-.256c-1.103-.307-1.955-.717-2.656-1.229l1.203-2.816a9.48 9.48 0 0 0 2.305 1.075c.802.256 1.654.359 2.506.359s1.503-.103 1.954-.359.652-.563.652-1.024c0-.409-.201-.717-.602-.973s-1.152-.512-2.305-.717c-1.403-.307-2.506-.665-3.308-1.075s-1.353-.921-1.653-1.485-.502-1.28-.502-2.099c0-.921.251-1.792.752-2.509.501-.768 1.253-1.331 2.205-1.741s2.005-.665 3.258-.665a11.19 11.19 0 0 1 3.157.461c1.003.307 1.804.716 2.356 1.229l-1.203 2.816c-1.353-.973-2.807-1.434-4.31-1.434-.702 0-1.303.154-1.754.41-.451.307-.652.665-.652 1.126a.99.99 0 0 0 .251.666c.15.153.451.358.852.512s1.052.358 1.904.512c1.353.307 2.406.665 3.208 1.075s1.353.921 1.654 1.485a4.2 4.2 0 0 1 .501 1.997c0 1.484-.552 2.662-1.704 3.532s-2.707 1.28-4.761 1.28c-1.103.052-2.205-.102-3.308-.409zm15.386-1.229c-1.103-1.127-1.704-2.765-1.704-4.967v-8.858h3.809v9.012c0 1.075.25 1.945.701 2.56.501.614 1.153.87 2.105.87.902 0 1.604-.307 2.105-.87.501-.615.702-1.434.702-2.56v-9.012h3.859v8.858c0 2.151-.552 3.789-1.704 4.915s-2.807 1.69-4.962 1.69c-2.105.051-3.759-.512-4.911-1.638zm27.363 1.485l-1.353-3.175h-6.615l-1.353 3.175h-3.909l6.966-15.31h3.107l7.016 15.31h-3.859zm-6.715-6.145h4.109l-2.054-4.915-2.055 4.915zm13.281 6.145v-15.31h3.909v12.084h6.365v3.226h-10.274z" fill="#262626"/><g clip-path="url(#A)" fill="#262626"><path d="M0 0l68.713 40.358v16.427L17.406 26.451v81.121L.199 96.186 0 0zm84.983 82.917v76.051l-47.276-28.972v18.542l63.744 38.387V91.319l-16.468-8.402z"/></g><path d="M278.301 135.401c0 5.492-4.356 9.935-9.719 9.935s-9.719-4.443-9.719-9.935 4.356-9.935 9.719-9.935 9.719 4.443 9.719 9.935z" stroke="#000" stroke-width=".5"/><path d="M272.687 140.193h-2.117l-1.52-3.059c-.124-.236-.274-.403-.448-.503-.175-.109-.395-.163-.661-.163h-.959v3.725h-1.918v-9.585h4.036c1.03 0 1.806.249 2.329.747.532.49.798 1.201.798 2.135 0 .725-.187 1.333-.561 1.822-.365.49-.884.811-1.557.966.457.126.843.484 1.158 1.074l1.42 2.841zm-3.874-5.33c.557 0 .96-.104 1.209-.312.249-.218.373-.553.373-1.006 0-.463-.124-.798-.373-1.007s-.652-.312-1.209-.312h-1.856v2.637h1.856z" fill="#000"/><defs><clipPath id="A"><path fill="#fff" d="M0 0h101.451v186.925H0z"/></clipPath></defs></svg>