<svg xmlns="http://www.w3.org/2000/svg" width="114" height="109" fill="none" xmlns:v="https://vecta.io/nano"><g clip-path="url(#A)" fill="#a87f45"><path d="M57.452 12.545l-.04-.034c-.02-.02-.043-.037-.065-.056l-.079-.062-.06-.042-.093-.059c-.017-.011-.037-.02-.054-.031-.034-.02-.071-.037-.108-.053l-.051-.022a1.35 1.35 0 0 0-.113-.045l-.054-.017-.111-.031-.068-.014-.099-.02c-.028-.006-.057-.008-.085-.011l-.085-.008c-.034 0-.065-.003-.099-.003h-.074c-.017 0-.034 0-.048.003-.037 0-.071-.003-.108-.003h-.057l-.113.006c-.023 0-.045.006-.068.008l-.099.017-.082.02c-.028.006-.057.014-.082.022-.031.008-.062.02-.094.031l-.068.025-.099.042-.062.028-.094.051-.062.037a.83.83 0 0 0-.082.056l-.068.05-.071.059-.068.065c-.011.011-.026.02-.037.034C40.687 26.807 34.574 46.917 38.3 66.384c.21 1.093.414 1.941.683 3.014h3.816c-.272-1.073-.675-2.598-.885-3.694-3.397-17.742 1.908-36.046 14.197-49.327C68.785 29.301 74.623 47.448 71.745 65.28c-.179 1.104-.573 2.739-.8 3.818l3.819.028c.224-1.079.434-2.169.61-3.27 3.156-19.565-3.541-39.493-17.917-53.305l-.006-.006zM31.705 49.041c0-18.197 9.668-34.206 24.446-44.973.034-.022.065-.048.099-.07a2.14 2.14 0 0 0 .099.07c14.778 10.767 24.996 26.776 24.996 44.973a67.94 67.94 0 0 1-.085 3.326h3.68c.051-1.101.082-2.208.082-3.326C85.022 29.226 73.8 11.72 57.403.329c-.014-.011-.031-.017-.045-.028-.023-.017-.048-.031-.074-.045a1.38 1.38 0 0 0-.088-.048.79.79 0 0 1-.065-.034 1.51 1.51 0 0 0-.102-.045c-.02-.008-.04-.014-.057-.022-.037-.014-.077-.025-.113-.037-.017-.006-.034-.008-.054-.014a.9.9 0 0 0-.119-.025L56.63.022c-.037-.006-.077-.011-.113-.014-.023 0-.045-.003-.068-.006-.034 0-.068-.003-.102-.003h-.085-.011-.102-.085a.81.81 0 0 0-.085.006c-.034.003-.065.008-.099.011-.026.003-.048.008-.071.011a1.96 1.96 0 0 0-.105.022l-.065.017-.102.034-.068.025c-.031.011-.062.025-.093.039-.026.011-.051.025-.077.037a.57.57 0 0 0-.079.045c-.025.017-.054.031-.079.051a.7.7 0 0 0-.04.025c-16.394 11.391-27.066 28.9-27.066 48.712 0 1.112.037 2.222.096 3.326h3.68a56.35 56.35 0 0 1-.099-3.326l-.006.006zM59.61 80.449l3.867.112c5.934-16.908 3.675-35.869-5.693-51.397-.008-.014-.02-.028-.028-.042a1.05 1.05 0 0 0-.048-.07c-.02-.028-.04-.053-.059-.081a.43.43 0 0 0-.048-.056c-.026-.028-.048-.056-.074-.081l-.042-.042c-.006-.006-.011-.011-.017-.014-.023-.022-.048-.045-.071-.065a1.73 1.73 0 0 0-.388-.287 1.84 1.84 0 0 0-.649-.205l-.094-.008c-.031 0-.062-.003-.093-.006h-.085c-.034 0-.068 0-.099.006-.026 0-.048.006-.074.008-.037.006-.071.008-.108.017-.023.003-.045.008-.068.014l-.105.025c-.023.006-.045.014-.071.023-.031.011-.062.02-.094.034l-.079.034a1.07 1.07 0 0 0-.077.037.87.87 0 0 0-.088.048l-.06.034a1.93 1.93 0 0 0-.096.065c-.017.011-.031.023-.048.034l-.093.076c-.014.011-.028.022-.04.037l-.085.084c-.014.014-.028.028-.043.045a2.64 2.64 0 0 0-.071.084c-.014.02-.031.039-.045.059-.02.028-.04.053-.057.084-.014.022-.031.048-.045.073-.009.014-.02.028-.028.045-8.602 15.745-10.479 34.72-4.052 51.237l3.992.031c-6.246-14.849-5.118-31.933 1.78-46.535 7.573 14.354 9.048 31.405 3.38 46.56l-.003-.014zM7.1 95.185c-3.448 0-5.832 1.458-5.832 1.458l1.165 2.185s3.601-3.014 5.603-3.014c1.344 0 1.826.879 2.002 2.739-1.242 2.714-10.04 1.961-10.04 6.256 0 2.511 2.637 4.194 5.376 4.194 2.231 0 3.904-.981 4.766-2.562v.227c0 1.658 1.472 2.338 3.042 2.338v-7.562c0-3.467-2.104-6.256-6.085-6.256l.003-.003zm3.042 8.138c0 3.014-1.749 4.949-3.652 4.949-1.775 0-3.448-1.306-3.448-3.39 0-3.643 5.401-3.792 7.074-5.5a51.26 51.26 0 0 1 .025 2.034v1.91-.003zm11.79-8.138c-3.068 0-3.652 1.86-4.59 1.86-.76 0-1.216-1.23-2.662-1.23v12.56h3.042v-8.29c0-2.385 1.369-4.121 3.221-4.121 2.206 0 3.703 1.784 3.703 5.225v7.186h3.042v-6.984c0-3.843-2.384-6.205-5.756-6.205zm15.925 11.955c-4.057 0-6.416-3.767-6.416-7.359 0-2.312 1.523-3.568 3.017-3.568 2.155 0 3.955 1.834 5.047 4.045l2.359-2.261c-1.216-1.632-3.246-2.815-5.756-2.815-3.879 0-7.151 2.587-7.151 6.683 0 3.767 2.841 7.135 7.326 7.135 3.703 0 5.932-2.79 5.932-2.79l-.354-.401s-1.596 1.331-4.006 1.331h.003zm13.692 0c-2.308 0-4.639-1.407-5.679-3.842h4.159c3.677 0 5.552-1.155 5.552-3.391s-2.231-4.722-6.136-4.722-6.822 2.739-6.822 6.683 2.841 7.135 7.301 7.135c3.703 0 5.957-2.79 5.957-2.79l-.354-.401s-1.724 1.331-3.981 1.331l.003-.003zm-6.439-7.233c0-2.287 1.472-3.919 3.55-3.919 2.257 0 4.006 1.834 4.006 4.045 0 1.408-1.066 2.562-3.119 2.562h-3.93s-.508-1.356-.508-2.688zm15.033-2.261c0-.98.964-1.834 2.078-1.834 1.596 0 3.298 1.407 5.172 3.166l1.165-2.211c-1.015-.654-3.144-1.581-5.552-1.581-3.144 0-5.503 1.506-5.503 3.643 0 4.22 8.977 4.697 8.977 7.711 0 1.056-1.015 1.835-2.308 1.835-1.8 0-3.93-1.632-6.059-3.995l-1.471 2.059c.964.829 3.754 2.562 6.921 2.562 2.841 0 5.577-1.407 5.577-3.767 0-4.27-9.002-4.472-9.002-7.587h.006zm13.694-3.441c0-1.784-1.698-2.41-3.042-2.41v4.02h-1.344v.629l1.344.2v8.416c0 2.312.785 3.944 2.458 3.944 1.267 0 2.155-1.205 2.155-2.186-.278.127-.482.177-.683.177-.836 0-.888-1.281-.888-4.219v-5.677l1.571.228v-1.509h-1.571V94.21v-.006zm9.178.98c-1.647 0-2.815.753-3.448 2.008-.482-1.006-1.826-1.382-2.841-1.382v12.56h3.042v-8.442c0-2.461 1.216-4.121 2.458-4.121 1.8 0 4.108 3.166 4.108 3.166l1.165-2.211c-1.066-.904-2.815-1.581-4.488-1.581l.003.003zm11.26 0c-3.448 0-5.832 1.458-5.832 1.458l1.165 2.185s3.601-3.014 5.603-3.014c1.344 0 1.826.879 2.002 2.739-1.242 2.714-10.04 1.961-10.04 6.256 0 2.511 2.637 4.194 5.376 4.194 2.231 0 3.904-.981 4.766-2.562v.227c0 1.658 1.472 2.338 3.043 2.338v-7.562c0-3.467-2.104-6.256-6.085-6.256l.003-.003zm3.042 8.138c0 3.014-1.749 4.949-3.652 4.949-1.775 0-3.448-1.306-3.448-3.39 0-3.643 5.401-3.792 7.074-5.5.026.604.026 1.281.026 2.034v1.91-.003zm7.681-5.677c0-.98.964-1.834 2.078-1.834 1.596 0 3.298 1.407 5.172 3.166l1.165-2.211a10.94 10.94 0 0 0-5.552-1.581c-3.144 0-5.503 1.506-5.503 3.643 0 4.22 8.977 4.697 8.977 7.711 0 1.056-1.015 1.835-2.308 1.835-1.801 0-3.93-1.632-6.059-3.995l-1.472 2.059c.964.829 3.754 2.562 6.921 2.562 2.841 0 5.577-1.407 5.577-3.767 0-4.27-9.002-4.472-9.002-7.587h.006z"/><path fill-rule="evenodd" d="M91.017 10.493c2.664 0 4.824-2.146 4.824-4.793S93.681.908 91.017.908 86.193 3.053 86.193 5.7s2.16 4.793 4.824 4.793zm0 .908c3.169 0 5.737-2.552 5.737-5.7S94.186 0 91.017 0 85.28 2.552 85.28 5.7s2.569 5.7 5.737 5.7z"/><path d="M93.541 8.208h-1.275l-.915-1.601a.67.67 0 0 0-.27-.263c-.105-.057-.238-.085-.398-.085h-.578v1.95h-1.155V3.192h2.43c.62 0 1.087.13 1.402.391s.48.629.48 1.117c0 .379-.112.697-.337.953s-.532.425-.937.505c.275.066.507.254.697.562l.855 1.487zm-2.332-2.789c.335 0 .578-.055.727-.164s.225-.289.225-.527-.075-.417-.225-.527-.392-.164-.727-.164h-1.118v1.38h1.118z"/></g><defs><clipPath id="A"><path fill="#fff" d="M0 0h114v109H0z"/></clipPath></defs></svg>