<svg xmlns="http://www.w3.org/2000/svg" width="273" height="146" fill="none" xmlns:v="https://vecta.io/nano"><g clip-path="url(#A)"><path d="M61.907.459C27.725.459.015 33.039.015 73.231s27.71 72.772 61.892 72.772 61.892-32.58 61.892-72.772S96.09.459 61.907.459z" fill="#252d1c"/><path d="M87.429 120.825l.458-1.514c.345-.064.685-.152 1.019-.262a15.67 15.67 0 0 0 6.032-3.77l1.107-1.341c1.864-2.362 3.13-4.65 4.928-8.956 1.03-2.47 3.36-12.271 4.154-18.965.256-2.177 1.292-11.247-.207-17.001-.703-2.704-1.463-3.21-1.315-4.838s.441-13.566.441-17.36c.529-11.899-4.188-23.991-13.304-32.13a16.8 16.8 0 0 0-.407-.361l-.41-.347c-.139-.114-.191-.165-.284-.245-8.863-7.32-21.553-11.031-37.383-7.709h-.014a42.2 42.2 0 0 0-9.89 3.461c-5.793 2.846-10.138 7.596-10.914 14.158-1.07 9.047 1.756 18.054 1.38 27.093-.219 5.39-3.414 7.968-6.348 12.081-.02.028-.037.057-.057.083-2.885 3.537-6.86 8.347-7.799 10.871-6.74 13.851 5.076 20.45 5.121 20.467l-.358 8.432.284 3.788c1.172 9.562 5.673 18.732 13.051 25.311l.378.339.455.384.25.211c6.726 5.558 15.649 9.038 26.492 8.942h.233.489.188.045c.805-.029 1.605-.1 2.427-.185.747-.109 1.487-.259 2.216-.45 1.339-.338 2.65-.775 3.924-1.309 1.259-.527 2.468-1.165 3.613-1.907a18.1 18.1 0 0 0 2.908-2.322c.61-.601 1.171-1.25 1.676-1.941.256-.35.509-.737.757-1.138a30.87 30.87 0 0 0 1.758-3.475c.569-1.286 1.09-2.644 1.559-3.964.501-1.398.942-2.75 1.303-3.928.017-.051.028-.096.045-.145" fill="#fff"/><path d="M211.105.459h-.353H90.434c7.728 4.055 14.672 9.676 20.656 16.705 6.333 7.497 11.259 16.078 14.539 25.328 3.527 9.862 5.315 20.262 5.284 30.735a90.47 90.47 0 0 1-5.284 30.735c-3.278 9.251-8.2 17.833-14.531 25.332-5.975 7.037-12.928 12.649-20.656 16.705h120.319.353c34.174.003 61.878-32.577 61.878-72.769S245.288.459 211.105.459z" fill="#ffdf4c"/><g fill="#252d1c"><path d="M141.954 48.645a9.17 9.17 0 0 0 4.837 1.286c4.065 0 6.939-1.819 8.621-5.458l-2.99-1.423c-1.066 2.4-2.891 3.599-5.474 3.597-.766.026-1.528-.124-2.227-.439a5.01 5.01 0 0 1-1.805-1.377c-1.018-1.209-1.529-2.77-1.531-4.684-.01-1.075.222-2.138.68-3.111a5.51 5.51 0 0 1 1.918-2.263 4.94 4.94 0 0 1 2.808-.834 5.19 5.19 0 0 1 3.215 1.053c.928.7 1.461 1.717 1.599 3.051h3.199v-6.932h-3.199v1.321a7.68 7.68 0 0 0-5.121-1.807 8.73 8.73 0 0 0-4.569 1.224c-1.369.819-2.485 2.001-3.224 3.415-.792 1.498-1.196 3.172-1.175 4.866-.021 1.726.375 3.432 1.155 4.972a8.74 8.74 0 0 0 3.283 3.543zm18.056-5.546c0 2.366.409 4.058 1.227 5.077s2.082 1.528 3.795 1.528c1.897 0 3.902-.805 6.015-2.416v2.103h6.723v-3.196h-3.129V31.112h-6.829v3.216h3.232v9.889c-1.878 1.565-3.622 2.348-5.232 2.348-.787 0-1.352-.22-1.693-.66s-.513-1.13-.515-2.069V31.112h-6.151v3.216h2.56l-.003 8.771zm34.254-20.337h-5.196l-2.677 5.979h2.45l5.423-5.979zm-7.315 15.28a7.52 7.52 0 0 0-3.181.729 6.07 6.07 0 0 0-2.512 2.078c-.622.902-.947 1.975-.931 3.071-.007 1.033.29 2.046.854 2.911a6.2 6.2 0 0 0 2.242 2.095 6.18 6.18 0 0 0 3.076.78c2.132 0 4.066-.854 5.804-2.561v2.243h6.219v-3.19h-3.058v-8.623c0-2.4-.569-4.156-1.707-5.268s-2.925-1.668-5.361-1.668a9.8 9.8 0 0 0-4.711 1.067c-1.343.746-2.433 1.875-3.13 3.244l3.44.854c.384-.675.946-1.231 1.624-1.608a5.1 5.1 0 0 1 2.442-.529c1.38 0 2.372.306 2.973.919s.903 1.633.905 3.059v1.966c-1.464-1.02-3.204-1.568-4.988-1.568zm4.988 6.691c-1.542 1.474-3.194 2.21-4.954 2.208a3.25 3.25 0 0 1-2.33-.854 2.85 2.85 0 0 1-.683-.986c-.156-.373-.23-.775-.219-1.18a2.84 2.84 0 0 1 1.033-2.251 3.64 3.64 0 0 1 2.458-.894c1.565 0 3.13.608 4.695 1.824v2.132zm29.072 4.658v-3.196h-3.058v-9.093c0-2.133-.391-3.703-1.173-4.71s-1.988-1.512-3.622-1.514c-1.972 0-4.076.818-6.31 2.453v-2.22h-6.761v3.216h3.216v11.867h-3.216v3.199h9.908v-3.199h-3.147v-9.719c1.993-1.577 3.79-2.365 5.389-2.365.751 0 1.294.25 1.624.748s.495 1.32.495 2.467v12.064h6.655zm4.242-4.727c0 1.841.33 3.145.99 3.902s1.744 1.138 3.25 1.138c.916-.04 1.822-.204 2.694-.487v-3.25a5.86 5.86 0 0 1-1.912.33 1.27 1.27 0 0 1-1.098-.444c-.213-.294-.32-.94-.322-1.938v-9.576h3.338v-3.227h-3.338v-6.039l-3.596 3.287v2.752h-2.382v3.216h2.382l-.006 10.336zm27.337-9.195a9.52 9.52 0 0 0-3.442-3.52 9.33 9.33 0 0 0-4.891-1.312 9.89 9.89 0 0 0-4.971 1.241 8.86 8.86 0 0 0-3.414 3.435 10 10 0 0 0-1.226 4.972 9.85 9.85 0 0 0 1.226 4.866c.803 1.456 1.99 2.665 3.431 3.495a9.67 9.67 0 0 0 4.954 1.286c1.699.016 3.37-.428 4.837-1.286 1.44-.84 2.634-2.046 3.459-3.495.847-1.481 1.284-3.16 1.266-4.866a9.59 9.59 0 0 0-1.229-4.815zm-3.303 7.88a5.79 5.79 0 0 1-2.086 2.242 5.45 5.45 0 0 1-2.944.845 5.53 5.53 0 0 1-2.954-.834 5.85 5.85 0 0 1-2.122-2.26 6.38 6.38 0 0 1-.763-3.059 6.38 6.38 0 0 1 .763-3.059 5.96 5.96 0 0 1 2.102-2.277 5.41 5.41 0 0 1 2.94-.854c1.052-.013 2.085.284 2.97.854a5.97 5.97 0 0 1 2.086 2.277 6.41 6.41 0 0 1 .748 3.042 6.46 6.46 0 0 1-.74 3.082zM142.37 85.582c1.619.843 3.424 1.267 5.249 1.232a11.8 11.8 0 0 0 5.276-1.19c1.607-.786 2.964-2.005 3.917-3.52l-3.161-1.423a6.54 6.54 0 0 1-2.592 2.297 7.6 7.6 0 0 1-3.351.746 6.03 6.03 0 0 1-4.174-1.523c-1.138-1.013-1.816-2.395-2.035-4.146h15.311a12.91 12.91 0 0 0-1.338-5.606c-.757-1.512-1.93-2.778-3.38-3.648a9.64 9.64 0 0 0-5.03-1.281 9.62 9.62 0 0 0-4.837 1.244 9.04 9.04 0 0 0-3.451 3.452 9.81 9.81 0 0 0-1.261 4.955 9.75 9.75 0 0 0 1.278 4.969c.842 1.464 2.084 2.658 3.579 3.444zm1.201-13.706a5.18 5.18 0 0 1 3.562-1.366 5.69 5.69 0 0 1 3.77 1.366 6.36 6.36 0 0 1 2.139 3.606h-11.434c.229-1.389.92-2.66 1.963-3.606zm16.16 8.142v6.261h3.198v-.99c.644.409 1.344.723 2.077.931a8.78 8.78 0 0 0 2.53.373c2.153 0 3.882-.509 5.187-1.528.626-.47 1.13-1.083 1.471-1.788a4.87 4.87 0 0 0 .483-2.264c0-2.873-1.802-4.64-5.406-5.302l-2.415-.47c-1.599-.254-2.628-.549-3.087-.885a1.63 1.63 0 0 1-.686-1.391 1.9 1.9 0 0 1 .241-.927c.159-.283.387-.521.664-.69.693-.443 1.506-.661 2.327-.626.844-.022 1.679.173 2.426.566a4.95 4.95 0 0 1 1.842 1.677v1.121h3.13V68.01h-3.13v.78c-1.195-.683-2.667-1.024-4.416-1.024a7.88 7.88 0 0 0-3.038.609c-.955.381-1.793 1.007-2.427 1.816a4.57 4.57 0 0 0-.945 2.911 4.8 4.8 0 0 0 .299 1.858 4.81 4.81 0 0 0 .987 1.602c.856.901 2.205 1.539 4.049 1.912l1.858.398c1.61.313 2.682.618 3.215.913.247.12.455.31.597.546a1.42 1.42 0 0 1 .202.783 2.01 2.01 0 0 1-.246 1.058c-.178.323-.441.591-.761.775-.671.414-1.592.619-2.763.617a4.95 4.95 0 0 1-2.808-.8c-.377-.233-.703-.542-.955-.907a3.21 3.21 0 0 1-.513-1.214v-.626h-3.187zm17.484-8.78h2.382v10.325c0 1.842.33 3.143.99 3.902s1.743 1.138 3.249 1.138a10.16 10.16 0 0 0 2.695-.487v-3.264c-.614.219-1.261.333-1.912.339a1.27 1.27 0 0 1-1.104-.444c-.213-.296-.32-.942-.322-1.938v-9.571h3.338v-3.216h-3.338v-6.065l-3.596 3.284v2.766h-2.382v3.23zm18.267-5.611h2.45l5.423-5.979h-5.199l-2.674 5.979zm5.906 18.418v2.242h6.223v-3.21h-3.059v-8.62c0-2.398-.569-4.154-1.707-5.268s-2.925-1.671-5.36-1.671a9.79 9.79 0 0 0-4.709 1.07 7.71 7.71 0 0 0-3.147 3.241l3.443.854a4.21 4.21 0 0 1 1.624-1.608c.757-.379 1.596-.561 2.442-.532 1.379 0 2.369.307 2.97.922s.903 1.635.905 3.059v1.964a8.74 8.74 0 0 0-4.977-1.551c-1.1.007-2.186.256-3.181.728a6.07 6.07 0 0 0-2.509 2.078 5.27 5.27 0 0 0-.93 3.068c-.007 1.033.29 2.045.853 2.911a6.23 6.23 0 0 0 2.242 2.095 6.22 6.22 0 0 0 3.084.783c2.123-.008 4.054-.859 5.793-2.556zm-8.55-3.233c-.008-.429.081-.854.26-1.244s.445-.734.776-1.007a3.63 3.63 0 0 1 2.458-.894c1.565 0 3.129.608 4.692 1.824v2.137c-1.542 1.47-3.193 2.207-4.953 2.208a3.24 3.24 0 0 1-1.249-.195c-.399-.146-.766-.37-1.079-.659a2.87 2.87 0 0 1-.687-.994c-.156-.376-.23-.782-.218-1.189v.011zm44.403-8.364a8.91 8.91 0 0 0-3.38-3.648 9.63 9.63 0 0 0-5.03-1.281 9.62 9.62 0 0 0-4.837 1.244 9.08 9.08 0 0 0-3.452 3.452c-.849 1.511-1.283 3.221-1.257 4.955a9.72 9.72 0 0 0 1.277 4.969 8.9 8.9 0 0 0 3.571 3.444 10.89 10.89 0 0 0 5.247 1.232 11.8 11.8 0 0 0 5.275-1.19 9.64 9.64 0 0 0 3.92-3.52l-3.163-1.423a6.52 6.52 0 0 1-2.59 2.297 7.62 7.62 0 0 1-3.354.746 6.04 6.04 0 0 1-4.171-1.52c-1.138-1.013-1.816-2.395-2.035-4.147h15.313c-.017-1.946-.473-3.864-1.334-5.609zm-13.868 3.034c.231-1.388.923-2.659 1.964-3.606.97-.891 2.244-1.38 3.562-1.366a5.71 5.71 0 0 1 3.773 1.366 6.36 6.36 0 0 1 2.136 3.606h-11.435zm24.071-15.402h-6.831v3.165h3.232v19.833h-3.232v3.199h9.611v-3.199h-2.78V60.08zM156.57 96.966h-7.09v3.164h3.528v7.231a10.19 10.19 0 0 0-3.087-2.242c-1.057-.476-2.204-.719-3.363-.714a8.44 8.44 0 0 0-4.552 1.312c-1.392.865-2.529 2.086-3.292 3.537-.798 1.498-1.208 3.172-1.192 4.869a10.04 10.04 0 0 0 1.121 4.727c.718 1.395 1.807 2.565 3.146 3.381 1.408.845 3.025 1.276 4.667 1.244 2.538 0 4.719-.997 6.544-2.991v2.678h6.862v-3.199h-3.3l.008-22.997zm-4.327 20.06a6.19 6.19 0 0 1-2.103 2.362 5.32 5.32 0 0 1-3.007.888 5.5 5.5 0 0 1-2.954-.817 5.81 5.81 0 0 1-2.085-2.242 6.62 6.62 0 0 1-.765-3.199 6.63 6.63 0 0 1 .748-3.102 6.18 6.18 0 0 1 2.04-2.331c.87-.585 1.899-.891 2.948-.876 1.075-.019 2.134.262 3.058.811a5.76 5.76 0 0 1 2.12 2.225c.514.955.777 2.026.765 3.111a6.79 6.79 0 0 1-.765 3.17zm23.911-11.31c-1.476-.878-3.165-1.332-4.882-1.312-1.74-.03-3.456.399-4.977 1.244-1.437.805-2.619 1.997-3.414 3.441a10.01 10.01 0 0 0-1.226 4.971c-.018 1.701.404 3.378 1.226 4.867a9.06 9.06 0 0 0 3.431 3.495 9.68 9.68 0 0 0 4.954 1.286c1.699.016 3.37-.429 4.837-1.286 1.442-.839 2.635-2.045 3.46-3.495a9.6 9.6 0 0 0 1.269-4.867c.012-1.687-.419-3.348-1.252-4.815a9.5 9.5 0 0 0-3.426-3.529zm.139 11.412a5.77 5.77 0 0 1-2.085 2.243c-.879.553-1.898.843-2.936.834-1.044.007-2.068-.282-2.954-.834a5.82 5.82 0 0 1-2.119-2.26 6.34 6.34 0 0 1-.757-3.059 6.34 6.34 0 0 1 .765-3.059 5.95 5.95 0 0 1 2.103-2.277c.876-.562 1.895-.858 2.936-.854a5.38 5.38 0 0 1 2.97.854 5.97 5.97 0 0 1 2.086 2.277c.498.936.755 1.981.748 3.042a6.45 6.45 0 0 1-.757 3.093zm1.15-20.598h-5.198l-2.675 5.982h2.45l5.423-5.982zm12.269.436h-6.832v3.164h3.235v19.833h-3.235v3.199h9.612v-3.199h-2.78V96.966zm20.818 14.374c0-2.398-.569-4.153-1.707-5.265s-2.926-1.668-5.363-1.67a9.75 9.75 0 0 0-4.709 1.07c-1.35.74-2.446 1.87-3.147 3.241l3.443.854c.385-.674.946-1.23 1.625-1.608.757-.376 1.596-.558 2.441-.529 1.379 0 2.37.307 2.973.922s.904 1.634.902 3.059v1.964c-1.463-1.02-3.204-1.567-4.988-1.566a7.55 7.55 0 0 0-3.181.732 6.07 6.07 0 0 0-2.509 2.077c-.622.901-.947 1.974-.931 3.068-.005 1.033.292 2.045.854 2.912.562.873 1.332 1.593 2.242 2.094.948.526 2.017.795 3.101.78 2.134 0 4.069-.854 5.805-2.561v2.242h6.222v-3.193h-3.058l-.015-8.623zm-3.528 7.163c-1.54 1.471-3.191 2.207-4.953 2.209a3.24 3.24 0 0 1-2.328-.854 2.86 2.86 0 0 1-.685-.984 2.84 2.84 0 0 1-.219-1.179c-.009-.429.08-.854.26-1.244a2.84 2.84 0 0 1 .775-1.007c.68-.594 1.556-.914 2.458-.897 1.565 0 3.129.608 4.692 1.825v2.131zm17.285-12.889c-1.083.643-1.99 1.781-2.72 3.415v-4.138h-6.519v3.216h3.668v11.856h-3.668v3.199h11.21v-3.199h-3.983v-4.138c0-1.947.154-3.436.461-4.468.139-.494.378-.954.703-1.352a3.74 3.74 0 0 1 1.183-.959c.949-.51 2.397-.766 4.345-.766h.777v-3.631h-.817c-2.01 0-3.557.322-4.64.965zM100.508 48.045c-1.849-4.033-10.185-1.34-14.066-.285s-4.165 4.528-4.165 4.528c-.987 6.739 3.243 19.6 3.813 21.042s1.642 7.354-7.864 7.354-11.381-3.318-11.381-3.318c1.992 5.772 12.3 5.942 15.856 4.963 5.952-1.645 6.863-6.025 6.06-9.568S86.67 64.3 86.124 58.697s.546-7.357 7.181-9.056 8.388 3.051 8.388 3.051.666-.615-1.184-4.647zm-39.585 9.912a3.38 3.38 0 0 0-.569-1.887c2.111 0 3.63 1.691 4.003 3.074.222.82 1.525 2.374 2.845 2.211 0 0 .199-.145-.148-.285-.427-.174-1.4-.754-1.755-2.245-.569-2.322-1.553-3.799-4.37-4.055a9.64 9.64 0 0 0-2.162.026c-2.754.347-3.804 1.873-3.804 1.873a10 10 0 0 1-.808.956C52.448 59.381 51.31 59 51.702 59.27c0 0 1.027.384 2.535-.484.186.733.611 1.384 1.209 1.848a3.4 3.4 0 0 0 2.089.714c.898-.002 1.759-.359 2.395-.995a3.39 3.39 0 0 0 .994-2.395zm30.987-1.4a11.22 11.22 0 0 0-3.483.529c-.674.219-1.121.453-1.221.569-.316.407-.063 1.992.051 2.601l.034.176c0 .046.017.077.017.077a3.4 3.4 0 0 0 1.206 1.863c.599.468 1.338.723 2.098.721.9-.004 1.762-.363 2.399-.999s.996-1.498 1.001-2.399a3.38 3.38 0 0 0-.481-1.739 7.39 7.39 0 0 1 3.056 1.614c1.548 1.497-.501 3.148-.703 3.364-.012.01-.023.022-.029.037s-.01.03-.01.046.004.032.01.046.017.027.029.037c3.508-1.292 1.59-4.414 1.59-4.414-1.664-1.608-3.733-2.114-5.565-2.129zM57.827 93.983s-.265.285.285.285c1.05 0 2.421.026 5.144 1.323a11.73 11.73 0 0 0 6.413 1.138c2.478-.285 2.931-.663 4.66-.743 2.026-.097 3.167.464 5.002.415 1.297-.031 2.612-.458 3.83-.324 1.138.122 2.831 1.064 3.559 1.064.427 0 .444-.31.208-.31-.854-.02-2.478-3.446-5.306-2.522-.569.185-1.05.609-2.171.663-.745.034-1.516-.285-2.729-.666-.884-.299-1.821-.407-2.75-.318s-1.828.374-2.639.836c-1.679.99-3.087 1.07-8.621-.501.017.017-3.539-1.246-4.885-.341zm.919-44.427l.364.083 2.888.746h.017l5.121 1.813c1.531.37 3.184-2.191 3.013-2.416-.051-.102-.925-1.483-3.252-2.041l-5.139-1.19-2.595-.441c-3.605-.484-7.073-.324-8.251 1.921l-.737 1.531-.327.817c-.711 1.941-.264 2.294-.264 2.294.392-.792.972-1.476 1.69-1.992 1.363-1.002 3.69-1.884 7.472-1.124zm23.397 69.297l-.899-.205a25.51 25.51 0 0 0-5.082-.509 25.25 25.25 0 0 0-6.316.797 25.27 25.27 0 0 1-6.314.796 25.13 25.13 0 0 1-8.083-1.323 43.49 43.49 0 0 0 19.114 4.394 43.74 43.74 0 0 0 12.613-1.847 49.79 49.79 0 0 0 3.767-1.858 25.03 25.03 0 0 1-3.699.284 25.49 25.49 0 0 1-5.102-.529z"/><path fill-rule="evenodd" d="M263.595 16.482a7.32 7.32 0 0 0 7.319-7.319 7.32 7.32 0 0 0-7.319-7.319 7.32 7.32 0 0 0-7.318 7.319 7.32 7.32 0 0 0 7.318 7.319zm0 1.386c4.808 0 8.705-3.897 8.705-8.705S268.403.459 263.595.459s-8.704 3.897-8.704 8.705 3.897 8.705 8.704 8.705z"/><path d="M267.426 12.994h-1.935l-1.388-2.445c-.114-.188-.25-.322-.41-.402-.159-.087-.36-.13-.603-.13h-.876v2.977h-1.752v-7.66h3.687c.94 0 1.65.199 2.127.598.486.391.729.96.729 1.706 0 .579-.171 1.065-.512 1.456-.334.391-.808.648-1.423.771.418.101.77.388 1.059.858l1.297 2.271zm-3.539-4.259c.508 0 .876-.083 1.104-.25.227-.174.341-.442.341-.804 0-.369-.114-.637-.341-.804s-.596-.25-1.104-.25h-1.696v2.108h1.696z"/></g></g><defs><clipPath id="A"><path fill="#fff" transform="translate(.015 .459)" d="M0 0h272.985v145.544H0z"/></clipPath></defs></svg>