<svg xmlns="http://www.w3.org/2000/svg" width="107" height="107" fill="none" xmlns:v="https://vecta.io/nano"><path d="M53.57 107a54.76 54.76 0 0 1-2.972-.081c-7.211-.392-14.131-2.185-20.565-5.328-6.215-3.036-11.718-7.199-16.358-12.37A53.31 53.31 0 0 1 3.149 71.618C.721 64.882-.311 57.809.081 50.598s2.184-14.131 5.328-20.565A53.31 53.31 0 0 1 17.78 13.676 53.32 53.32 0 0 1 35.383 3.15C42.118.721 49.19-.311 56.403.081s14.131 2.185 20.565 5.328a53.33 53.33 0 0 1 16.358 12.37 53.28 53.28 0 0 1 10.525 17.602c2.428 6.738 3.46 13.81 3.068 21.022a53.15 53.15 0 0 1-5.328 20.565A53.3 53.3 0 0 1 89.22 93.325c-5.173 4.639-11.094 8.18-17.602 10.525-5.807 2.094-11.867 3.15-18.048 3.15zM53.468.658C25.631.658 2.265 22.508.736 50.633c-1.581 29.094 20.803 54.05 49.897 55.631a54.22 54.22 0 0 0 2.899.078c27.837 0 51.203-21.85 52.732-49.975l.328.018-.328-.018C107.845 27.273 85.461 2.317 56.367.736a53.7 53.7 0 0 0-2.899-.079zm.1 104.511a54.13 54.13 0 0 1-2.871-.077c-6.965-.379-13.647-2.11-19.862-5.146a51.48 51.48 0 0 1-15.798-11.948A51.52 51.52 0 0 1 4.871 70.999C2.526 64.492 1.53 57.661 1.908 50.697s2.11-13.647 5.146-19.861a51.48 51.48 0 0 1 11.948-15.798 51.5 51.5 0 0 1 17-10.166c6.507-2.345 13.337-3.341 20.303-2.963a51.34 51.34 0 0 1 19.862 5.146 51.48 51.48 0 0 1 15.798 11.948 51.5 51.5 0 0 1 10.165 16.999c2.345 6.507 3.342 13.337 2.963 20.301l-.109-.005.109.005a51.32 51.32 0 0 1-5.146 19.862 51.48 51.48 0 0 1-11.948 15.798A51.52 51.52 0 0 1 71 102.129a51.23 51.23 0 0 1-17.432 3.04zM53.436 2.05c-12.689 0-24.769 4.613-34.288 13.15-10.23 9.175-16.275 21.786-17.02 35.508-1.539 28.327 20.253 52.625 48.58 54.165.954.051 1.907.078 2.856.078 12.689 0 24.769-4.613 34.288-13.151 10.23-9.175 16.275-21.786 17.02-35.509 1.54-28.327-20.254-52.625-48.581-54.164-.953-.053-1.906-.078-2.855-.078zm.103 82.815c-.579 0-1.159-.015-1.741-.047a31.15 31.15 0 0 1-21.646-10.376 31.16 31.16 0 0 1-7.97-22.643 31.16 31.16 0 0 1 10.376-21.646c6.236-5.593 14.276-8.424 22.643-7.97s16.052 4.139 21.646 10.376a31.16 31.16 0 0 1 7.97 22.643l-.109-.005.109.005a31.16 31.16 0 0 1-10.376 21.646c-5.802 5.204-13.168 8.017-20.902 8.017zm-.058-62.51c-16.406 0-30.178 12.879-31.079 29.455a30.93 30.93 0 0 0 7.914 22.484 30.94 30.94 0 0 0 21.495 10.303 31.58 31.58 0 0 0 1.709.046c16.406.001 30.178-12.879 31.079-29.455a30.93 30.93 0 0 0-7.914-22.484A30.94 30.94 0 0 0 55.19 22.401a31.58 31.58 0 0 0-1.709-.046zm.171 60.938a30.29 30.29 0 0 1-1.647-.045c-7.912-.43-15.183-3.915-20.473-9.814a29.47 29.47 0 0 1-7.537-21.416c.43-7.912 3.915-15.183 9.814-20.473a29.47 29.47 0 0 1 21.417-7.538 29.46 29.46 0 0 1 20.473 9.814 29.47 29.47 0 0 1 7.537 21.417 29.47 29.47 0 0 1-9.814 20.473 29.45 29.45 0 0 1-19.77 7.582zm-.055-58.674c-15.281 0-28.108 11.996-28.947 27.434-.868 15.971 11.419 29.672 27.391 30.539S81.713 71.173 82.58 55.201 71.16 25.529 55.189 24.662a29.9 29.9 0 0 0-1.592-.043z" fill="#633117"/><g clip-path="url(#A)" fill="#633117"><path d="M33.728 68.106h6.897c.757 0 .462-.639.291-.835a2.83 2.83 0 0 0-.332-.315c-.578-.473-2.167-1.469-2.697-2.543-.563-1.141-.925-2.723-.783-5.368s1.22-13.035 1.375-13.585.26-.904.693-.844c.275.039.707-.115 1.971 7.485s3.656 16.325 7.115 16.325l3.939.002c.146.001.767-.017.767-.711 0-.56-1.068-.94-1.514-3.872s-.412-15.715.308-19.284 1.096-3.842 1.439-4.354.617-1.329-.617-1.329h-5.651a1.17 1.17 0 0 1-.119-.007c-.157-.017-.6-.027-.6.484 0 1.049 2.466 1.368 2.466 5.283v12.913s-.103 3.495-.617 2.473-1.569-3.975-2.5-9.184c-1.094-6.118-3.157-11.973-5.862-11.973H34.1c-.024 0-.049 0-.073-.002-.135-.009-.763-.021-.763.526 0 .614 3.048 1.534 2.843 6.067s-1.652 18.046-2.57 19.937c-.687 1.416-1.097 1.675-.856 2.181.083.175.378.532 1.047.532zm22.806-28.888c-.386-.867 1.424-.749 1.424-.749h12.638s1.198-.025.754.546c-.571.733-1.061 2.147-.342 4.465s.446 4.771-.788 4.771h-4.726s-.925-.034-.89-.374.805-.886 1.37-1.398 2.525-2.564.301-4.558c-1.824-1.636-5.214.154-5.728 5.011-.572 5.408-.269 8.541.068 11.526.291 2.573 1.01 6.169 4.906 6.169 2.398 0 3.004-.323 3.826-3.51s-.942-6.577-1.883-6.765-2.038-.204-2.654 1.005-.976 1.959-1.593 1.5-.582-3.711-.514-4.028.154-1.442 1.181-1.442l8.065-.034s.993-.085.993.665-.342.209-.342 1.629 1.164 11.833 1.729 12.685.412 2.198-.634 2.198H62.408c-2.949 0-5.368-.748-6.581-4.172-.804-2.269-.425-7.074-.133-8.897.288-1.805 3.097-13.971.964-16.074a.57.57 0 0 1-.124-.168z"/></g><path d="M53.565 103.597a51.87 51.87 0 0 1-2.783-.075c-6.753-.367-13.231-2.045-19.257-4.989a49.94 49.94 0 0 1-15.318-11.583c-4.344-4.844-7.66-10.389-9.856-16.482a49.81 49.81 0 0 1-2.872-19.686c.367-6.753 2.045-13.231 4.989-19.257 2.844-5.82 6.741-10.973 11.583-15.317a49.93 49.93 0 0 1 16.482-9.856c6.309-2.274 12.932-3.24 19.685-2.873S69.45 5.524 75.475 8.468a49.94 49.94 0 0 1 15.318 11.584c4.344 4.844 7.66 10.389 9.856 16.482 2.273 6.309 3.24 12.932 2.873 19.684a49.75 49.75 0 0 1-4.989 19.257c-2.844 5.82-6.741 10.973-11.583 15.317a49.94 49.94 0 0 1-16.482 9.856c-5.44 1.96-11.114 2.949-16.902 2.949zM53.47 3.624c-26.272 0-48.33 20.626-49.772 47.171-.723 13.302 3.778 26.091 12.673 36.008s21.12 15.778 34.423 16.501a51.3 51.3 0 0 0 2.768.075c12.3.002 24.012-4.471 33.24-12.748 9.917-8.895 15.777-21.12 16.5-34.423s-3.778-26.09-12.673-36.008S69.509 4.42 56.207 3.698c-.917-.05-1.829-.074-2.736-.074zm.072 83.167a33.74 33.74 0 0 1-1.848-.05A33.07 33.07 0 0 1 28.72 75.728c-5.937-6.618-8.941-15.155-8.459-24.032a33.07 33.07 0 0 1 11.012-22.974c6.619-5.937 15.155-8.94 24.033-8.459a33.07 33.07 0 0 1 22.975 11.012 33.07 33.07 0 0 1 8.459 24.033 33.07 33.07 0 0 1-11.012 22.975c-6.159 5.523-13.975 8.509-22.185 8.509zm-.062-66.361c-17.42 0-32.045 13.677-33.001 31.276-.989 18.207 13.019 33.826 31.226 34.815S85.531 73.501 86.52 55.294 73.501 21.468 55.294 20.479c-.607-.033-1.212-.049-1.814-.049z" fill="#633117"/><defs><clipPath id="A"><path fill="#fff" transform="translate(32.612 38.463)" d="M0 0h42.039v30.065H0z"/></clipPath></defs></svg>